<?xml version="1.0" encoding="UTF-8" standalone="no"?>
<svg
   width="502.879"
   zoomAndPan="magnify"
   viewBox="0 0 377.15925 90.188247"
   height="120.251"
   preserveAspectRatio="xMidYMid"
   version="1.0"
   id="svg19"
   sodipodi:docname="batchi-svg.svg"
   inkscape:version="1.3.2 (091e20e, 2023-11-25, custom)"
   xmlns:inkscape="http://www.inkscape.org/namespaces/inkscape"
   xmlns:sodipodi="http://sodipodi.sourceforge.net/DTD/sodipodi-0.dtd"
   xmlns="http://www.w3.org/2000/svg"
   xmlns:svg="http://www.w3.org/2000/svg">
  <style
     id="style1">
    #test {
         stroke-dasharray: 1555.89453125;
         stroke-dashoffset: 1555.89453125;
         animation: handwriting 25s linear infinite forwards;
      }
      @keyframes handwriting {to{stroke-dashoffset:0}}
  </style>
  <sodipodi:namedview
     id="namedview19"
     pagecolor="#ffffff"
     bordercolor="#000000"
     borderopacity="0.25"
     inkscape:showpageshadow="2"
     inkscape:pageopacity="0.0"
     inkscape:pagecheckerboard="0"
     inkscape:deskcolor="#d1d1d1"
     inkscape:zoom="0.35284628"
     inkscape:cx="280.57544"
     inkscape:cy="-9.9193336"
     inkscape:window-width="1280"
     inkscape:window-height="945"
     inkscape:window-x="-9"
     inkscape:window-y="-9"
     inkscape:window-maximized="1"
     inkscape:current-layer="svg19" />
  <defs
     id="defs1">
    <g
       id="g1" />
    <clipPath
       clipPathUnits="userSpaceOnUse"
       id="clipPath29">
      <path
         id="path30"
         d="m 167.71142,126.479 c -0.10547,0 -0.21484,0.0284 -0.32812,0.0791 -0.11719,0.0547 -0.28906,0.0776 -0.51563,0.0776 -5.49218,1.80469 -14.91407,13.41848 -28.26562,34.84424 -3.14844,4.9375 -6.76514,10.9756 -10.85889,18.1084 -1.06259,1.8494 -2.26073,3.96385 -3.39551,5.95312 -4.07718,4.63569 -8.75206,9.07313 -14.0332,13.3125 -8.86718,7.52343 -16.101566,11.28223 -21.703121,11.28223 -5.499997,0 -8.25,-2.91504 -8.25,-8.75098 0,-3.37499 0.83691,-6.56983 2.516603,-9.59326 0.675779,0.21875 1.459957,0.32813 2.358397,0.32813 6.06249,0 13.52442,-2.6919 22.391601,-8.07862 9.98827,-6.06249 14.98388,-12.23437 14.98388,-18.51562 0,-2.01953 -0.8208,-3.72559 -2.45361,-5.12403 -1.625,-1.40625 -3.72559,-2.10937 -6.2959,-2.10937 -7.85546,0 -16.777351,5.1631 -26.765619,15.4834 -6.779714,7.08603 -11.203409,13.62969 -13.278811,19.63476 -1.518812,1.43118 -3.180972,2.88114 -4.990722,4.35059 -3.648434,2.96875 -7.405766,5.46436 -11.280762,7.48389 -3.867183,2.02343 -7.48096,3.03076 -10.844238,3.03076 -4.937495,0 -7.40625,-2.51856 -7.40625,-7.56153 0,-5.61327 3.585456,-13.02393 10.765137,-22.23486 l 11.624999,-14.64111 c 0.332031,-0.89453 -0.0073,-1.89747 -1.015136,-3.01465 -1.011718,-1.125 -2.18799,-1.6875 -3.531739,-1.6875 -0.449218,0 -0.788574,0.0537 -1.015136,0.15527 l -4.375488,2.7041 c -2.468748,1.46094 -4.714358,2.18702 -6.733887,2.18702 -3.480466,0 -5.219238,-1.17628 -5.219238,-3.53174 0,-0.11328 1.348147,-1.91016 4.047363,-5.39063 2.800778,-3.47656 4.202637,-6.28467 4.202637,-8.42138 0,-2.35157 -1.292484,-3.53174 -3.874512,-3.53174 -3.929683,0 -7.184085,4.88331 -9.766113,14.64111 -2.355467,4.60547 -5.327152,9.31983 -8.920899,14.14014 -3.585933,4.82421 -7.512211,9.70362 -11.781738,14.64111 -1.011718,1.125 -1.683594,2.02686 -2.015625,2.70264 -0.562499,0.89844 -0.84375,1.62597 -0.84375,2.18847 0,0.44922 0.281251,0.6709 0.84375,0.6709 1.45703,0 5.499518,-4.31983 12.124512,-12.96826 l 12.454101,-16.15576 c 1.789061,3.8125 4.034671,5.71875 6.733887,5.71875 h 1.000488 c 0.34375,0 0.737305,-0.0513 1.186524,-0.15674 -1.343749,1.79297 -2.636232,3.73047 -3.874512,5.8125 -1.230468,2.07422 -2.406739,4.39795 -3.531738,6.96826 -2.917966,6.51172 -4.374024,12.1255 -4.374024,16.84424 0,4.26171 0.893557,7.65674 2.686524,10.18799 1.78906,2.52343 5.101566,3.78076 9.9375,3.78076 3.249996,0 6.863773,-0.95313 10.844238,-2.85937 3.988277,-1.90625 7.863284,-4.34375 11.625,-7.3125 1.461956,-1.15802 2.808186,-2.31046 4.092773,-3.45996 -0.09174,0.79303 -0.152344,1.57902 -0.152344,2.35107 0,3.8125 1.465824,6.87061 4.391605,9.17139 2.914057,2.30077 6.164062,3.45263 9.749999,3.45263 5.945303,0 13.242195,-3.14063 21.890624,-9.42187 3.4285,-2.40382 6.64898,-5.01206 9.68847,-7.80176 -1.4221,2.51758 -2.79349,4.93544 -4.3081,7.63037 -1.34375,2.46875 -2.01563,4.26563 -2.01563,5.39063 0,1.90624 1.62501,2.85937 4.875,2.85937 0.5625,0 1.46583,-0.78955 2.70411,-2.35987 1.23046,-1.57031 2.62842,-3.50341 4.20263,-5.79638 1.57031,-2.30078 3.08594,-4.46142 4.54688,-6.48486 11.66405,-14.03124 24.6797,-24.63234 39.04687,-31.81201 -1.6875,2.6875 -3.375,5.3833 -5.0625,8.07861 -1.67968,2.6875 -3.30469,5.38183 -4.875,8.07715 -4.03124,7.06249 -6.04687,12.78955 -6.04687,17.17236 0,7.74218 3.3042,11.60888 9.92138,11.60888 1.34375,0 3.39063,-0.9248 6.14063,-2.78027 2.75,-1.85156 5.66504,-4.14843 8.75098,-6.89062 3.00799,-2.67377 5.78841,-5.32112 8.36425,-7.94678 -1.17741,3.37243 -1.59254,6.55572 -1.2041,9.54053 0.33594,2.58593 1.84473,4.82764 4.53223,6.73389 2.69531,1.90624 5.39404,2.85937 8.09326,2.85937 1.57031,0 3.61719,-0.67188 6.14062,-2.01562 2.51953,-1.35157 5.35206,-3.59717 8.50049,-6.73389 l 10.43701,-10.11035 c -0.44921,1.90625 -0.67236,3.8208 -0.67236,5.73486 0,5.49219 2.46876,9.19531 7.40625,11.10938 0.89453,0.33593 1.84766,0.4995 2.85938,0.4995 6.63752,0 15.78398,-7.26362 27.42627,-21.77343 l 5.38769,-5.66309 c -0.78125,1.79297 -1.59375,3.61671 -2.4375,5.46827 -0.84375,1.85546 -1.65625,3.73486 -2.4375,5.64111 -0.79297,1.79296 -1.46777,3.89795 -2.03027,6.31201 -0.55469,2.41797 -0.8291,4.07422 -0.8291,4.96875 0,1.11719 0.50439,2.37451 1.51611,3.78076 1.00781,1.40625 2.29736,2.10937 3.85986,2.10937 0.78906,0 3.20655,-2.64063 7.24951,-7.92187 3.03125,-3.92578 5.80421,-7.39746 8.32764,-10.4209 2.51953,-3.03124 4.78955,-5.67187 6.81299,-7.92187 7.51952,-8.41406 15.09766,-15.42677 22.73437,-21.03223 l -10.78125,17.50049 c -4.49218,7.40625 -6.73388,14.36769 -6.73388,20.87549 0,2.58593 0.6123,4.74512 1.84277,6.48339 1.23828,1.74219 3.37598,2.61036 6.40723,2.61036 2.13281,0 4.60156,-0.95313 7.40625,-2.85938 2.80077,-1.91406 5.68701,-4.21923 8.65576,-6.90673 2.85979,-2.58958 5.45599,-5.12315 7.80029,-7.60108 -0.9778,2.91795 -1.48535,5.51054 -1.48535,7.75781 0,4.15625 0.8208,7.05371 2.45361,8.68652 1.625,1.62501 3.67188,2.4375 6.14063,2.4375 4.48827,0 8.64014,-1.09374 12.45263,-3.28125 3.8125,-2.1953 7.34376,-4.86279 10.59375,-7.9995 3.25781,-3.14453 6.2378,-6.06202 8.93702,-8.74952 2.23827,-2.25 4.0039,-4.21191 5.29687,-5.8916 1.28906,-1.6875 1.93799,-2.8125 1.93799,-3.375 0,-0.67578 -0.22705,-1.01513 -0.67236,-1.01513 -0.23047,0 -0.76465,0.28125 -1.6084,0.84375 -0.83594,0.56249 -1.81348,1.57373 -2.93848,3.03076 -1.79297,2.25 -4.1211,4.72705 -6.98437,7.42236 -2.86719,2.6875 -5.87012,5.21143 -9.01465,7.56299 -3.13672,2.35546 -6.13672,4.29297 -9,5.8125 -2.86719,1.51171 -5.19532,2.26464 -6.98438,2.26464 -2.80468,0 -4.2041,-1.79687 -4.2041,-5.39062 0,-4.59374 4.20753,-12.33106 12.62549,-23.21777 l 12.79687,-16.5 c 0,-1.00781 -0.73437,-1.93799 -2.20312,-2.78174 -1.46094,-0.84375 -2.69531,-1.26562 -3.70313,-1.26562 -4.03124,0.11719 -9.1958,5.27784 -15.48486,15.48486 -1.5625,2.46874 -3.16309,5.27686 -4.7959,8.42139 -0.38853,0.75277 -0.75837,1.50412 -1.11474,2.25292 -1.91734,2.11482 -3.92118,4.25196 -6.0293,6.41895 -2.24219,2.30469 -4.65137,4.57471 -7.2334,6.81299 -5.49999,4.49218 -9.54395,6.73389 -12.12598,6.73389 -1.12499,0 -1.80371,-0.55421 -2.03027,-1.67139 -0.21875,-1.125 -0.32812,-2.08252 -0.32812,-2.87549 0,-1.90625 0.50293,-4.23438 1.51464,-6.98437 1.00782,-2.75 2.52344,-5.6919 4.54688,-8.82862 1.23828,-1.91406 2.83643,-4.15967 4.79736,-6.73388 1.96875,-2.58203 4.23877,-5.44581 6.81299,-8.59424 4.26953,-5.49999 6.56934,-8.64063 6.90527,-9.42188 0.11329,-0.33203 0.17286,-0.78076 0.17286,-1.34326 0,-1.57031 -0.48145,-2.64111 -1.43848,-3.20361 -0.94922,-0.5625 -2.32422,-0.84375 -4.125,-0.84375 -3.36718,0 -9.00782,3.28956 -16.92188,9.85986 -7.90624,6.5625 -18.36622,16.35207 -31.37402,29.35986 2.00781,-7.28905 8.06593,-17.89551 18.17139,-31.81347 0.33203,-0.66406 0.49951,-1.33594 0.49951,-2.01563 0,-2.35156 -1.51563,-3.53027 -4.54687,-3.53027 -0.21875,0 -0.66749,0.14062 -1.34327,0.42187 -0.66796,0.28125 -1.28174,0.8125 -1.84423,1.59375 -2.13672,2.46875 -4.41358,5.16309 -6.82764,8.07715 -2.40625,2.91797 -4.62061,5.64112 -6.64014,8.17237 -0.43418,0.54146 -0.58817,0.72527 -0.97558,1.20703 -0.12276,0.1035 -0.24617,0.22551 -0.37061,0.38672 -3.77182,4.70359 -7.2521,8.82364 -10.45166,12.38086 -1.19402,1.24804 -2.37228,2.46283 -3.51562,3.60351 -0.43031,0.43031 -0.70639,0.79685 -0.90528,1.1294 -7.6677,7.88033 -13.37693,11.83886 -17.11084,11.83886 -1.90625,0 -3.14062,-1.28857 -3.70312,-3.87451 -0.66797,-3.81249 2.64454,-11.05128 9.9375,-21.71924 7.28905,-10.8828 10.87841,-16.43652 10.76513,-16.65527 -0.10546,-0.78906 -0.66357,-1.68799 -1.67138,-2.68799 -1.01172,-1.00781 -2.19629,-1.51611 -3.54785,-1.51611 -0.44922,0 -0.83985,0.0864 -1.17188,0.25049 -0.33594,0.16796 -0.72656,0.25048 -1.17187,0.25048 -0.23047,0 -0.54297,-0.67187 -0.9375,-2.01562 -0.38672,-1.35156 -0.97608,-2.42237 -1.76514,-3.20361 -1.46094,-1.23828 -3.48096,-1.85889 -6.06299,-1.85889 -9.53124,0 -20.24562,5.94874 -32.14014,17.84326 -4.04528,4.00713 -7.3268,7.82463 -9.88183,11.4624 l -7.5e-4,0.001 c -0.22448,0.18933 -0.46289,0.40869 -0.71484,0.66065 -1.125,1.34374 -2.78125,3.22705 -4.96875,5.64111 -2.1875,2.41797 -4.6333,4.85986 -7.32861,7.32862 -2.6875,2.46874 -5.35499,4.54687 -7.99951,6.23437 -2.63672,1.67969 -4.96192,2.57031 -6.96973,2.67188 -1.91797,0 -2.87402,-1.28565 -2.87402,-3.85987 0,-4.93749 3.70313,-12.34376 11.10937,-22.21875 4.15625,-5.61327 7.2417,-9.76514 9.26514,-12.45263 2.01953,-2.69532 3.03076,-4.43799 3.03076,-5.21925 0,-2.92577 -1.57374,-4.39013 -4.71826,-4.39013 -0.11719,0 -0.34034,0.0313 -0.67237,0.0937 -0.33593,0.0547 -0.61718,0.0776 -0.84375,0.0776 -1.79296,0.23047 -4.31982,1.21484 -7.57763,2.95313 -3.25,1.74218 -6.89893,3.98388 -10.93799,6.73388 -4.04297,2.75 -8.19483,5.64063 -12.45264,8.67187 -4.26171,3.02344 -8.2461,5.88282 -11.95312,8.57813 0.78906,-2.24999 2.83594,-5.8125 6.14062,-10.6875 3.3125,-4.88281 7.9419,-11.08595 13.89112,-18.60938 11.33202,-14.69529 17.16308,-23.22216 17.49902,-25.57763 -0.44922,-2.35156 -1.40235,-3.53174 -2.85938,-3.53174 z m 190.54102,16.32862 c -4.27344,0 -6.40723,1.5708 -6.40723,4.70361 0,1.57422 0.70313,2.98047 2.10938,4.21875 1.40624,1.23046 3.0625,1.84277 4.96875,1.84277 1.34374,0 2.74316,-0.53125 4.2041,-1.59375 1.45703,-1.07031 2.18701,-2.28027 2.18701,-3.62402 0,-1.57031 -0.78955,-2.89112 -2.35986,-3.95361 -1.5625,-1.0625 -3.13184,-1.59375 -4.70215,-1.59375 z M 234.37353,160.3081 c 2.01953,0 3.47559,0.7881 4.37403,2.3584 l -17.84327,24.57862 c -11.21873,14.24998 -20.08643,21.375 -26.59423,21.375 -2.13672,0 -3.4834,-1.34815 -4.0459,-4.04737 -1.23047,-7.28905 4.20997,-16.54591 16.32715,-27.76465 11.67577,-10.99998 20.93848,-16.5 27.78222,-16.5 z m -119.5122,2.85938 c 2.36328,0 3.54785,0.72998 3.54785,2.18701 0,1.57422 -0.70313,3.3711 -2.10938,5.39063 -1.40625,2.02343 -3.20312,4.01513 -5.39062,5.98388 -2.1875,1.96094 -4.40332,3.72656 -6.6416,5.29688 -6.855466,4.26171 -12.413581,6.39111 -16.671391,6.39111 -0.781245,0 -1.511228,-0.10938 -2.187008,-0.32812 1.906245,-3.25781 4.203128,-6.34718 6.890625,-9.26514 2.695305,-2.91406 5.503418,-5.60987 8.421384,-8.07861 6.0625,-5.05078 10.77295,-7.57764 14.14014,-7.57764 z"
         style="display:inline;stroke-width:0.999997" />
    </clipPath>
  </defs>
  <rect
     style="fill:#f9f9f9;stroke:none;stroke-width:0.225435;stroke-linecap:round;stroke-linejoin:round;stroke-miterlimit:7.3"
     id="rect1"
     width="377.15924"
     height="90.188248"
     x="0"
     y="5.6843419e-14" />
  <path
     style="fill:none;stroke:#000000;stroke-width:10.2;stroke-linecap:round;stroke-linejoin:round;stroke-opacity:1"
     d="m 10.959978,191.83282 6.376714,-7.90446 17.270268,-23.77983 10.627858,-16.47318 -8.56871,16.20748 2.59054,2.32484 1.262058,1.46133 2.059147,0.99636 2.789813,0.33213 h 1.992723 l 2.989085,-1.12921 9.166527,-3.45406 -13.616942,16.00821 -3.121934,4.58327 -3.985446,8.17016 -1.727027,6.24387 0.132849,5.57962 0.929937,4.45042 1.394906,2.65696 2.324844,1.12921 3.71975,1.12921 7.173804,-1.59418 5.845321,-2.59054 3.454054,-2.85624 3.38763,-2.39127 7.040955,-4.91538 1.594179,-1.79345 10.096463,-4.64968 5.646052,-0.0665 10.893554,-3.38763 9.63149,-6.11102 7.9709,-7.83804 1.99272,-5.71248 -0.79709,-3.5869 -1.79345,-0.92993 -4.38399,-1.12922 -5.91175,1.26206 -5.91174,3.32121 -10.030046,8.76798 -7.505918,8.30301 -5.052262,8.03899 -1.878758,7.13927 -0.281812,5.82416 1.033312,2.72419 1.78482,3.19389 2.348453,1.50301 3.193882,1.03331 5.448398,-0.37575 4.60296,-1.50301 5.260521,-3.09995 3.94539,-2.81813 3.38176,-2.34845 9.67561,-8.07866 6.85746,-6.76352 21.41784,-33.25401 16.43913,-21.69965 5.26051,-4.69689 -40.01753,56.36272 -13.1513,22.63903 -1.40907,3.56964 2.91207,1.40907 1.87876,-0.0939 2.34845,-3.09995 7.23321,-11.08467 7.04535,-8.07866 4.79082,-4.03932 3.94539,-4.97871 9.86349,-8.17259 8.54834,-6.29385 3.28783,-1.59694 7.13928,-3.85145 4.2272,-0.7515 h 2.25451 l 1.87875,1.503 -10.14528,10.99074 -10.80286,15.31187 -4.2272,9.58166 0.7515,6.85747 1.40907,3.66357 3.006,1.31513 4.6969,-1.22119 5.26052,-3.38176 6.38778,-5.91809 5.73021,-5.54233 4.88477,-4.79084 9.39378,-0.93937 4.41508,-5.35446 7.89078,-7.42109 10.05136,-8.83017 6.57565,-3.66357 5.16658,-1.69089 6.29384,0.28182 2.53632,2.25451 0.0939,1.22119 -4.50902,5.82415 -17.28457,23.20265 -6.01202,7.70291 -6.95141,5.73021 -6.29383,4.03933 -4.97871,0.65756 -3.66358,-1.12725 -2.72419,-2.81814 -0.37575,-5.82415 1.78482,-7.60897 9.29985,-16.53306 9.29985,-9.6756 9.2059,-6.48171 6.48172,-2.81814 6.57565,-1.87876 3.94539,-0.46969 3.19389,1.78482 3.75364,4.68428 4.6829,-0.0996 -14.35463,23.59673 -5.35446,8.64227 -1.69088,5.26053 1.03332,4.88477 2.81813,3.56964 4.97871,1.40907 4.60295,-2.06664 5.07265,-4.32114 8.54835,-9.29985 6.66959,-7.04534 4.32114,-5.54234 6.10596,-7.13927 8.1726,-10.33317 3.4757,-3.28783 2.06663,-0.65756 2.25451,0.84545 0.75151,2.34844 -5.54234,4.69689 -9.48772,12.49374 -3.00602,6.10596 -3.66358,7.7029 -5.26052,9.58167 0.37576,5.63627 2.34844,1.31513 1.9727,-0.46969 14.09068,-18.22395 4.97871,-6.29383 8.45441,-10.70892 9.11197,-7.98472 4.69689,-3.66357 6.95141,-3.94539 6.9514,-1.31514 1.97269,1.59695 -9.01803,9.01804 -8.73622,11.83617 -6.10596,9.86347 -2.25452,8.54835 -0.18787,4.97871 0.37575,3.94539 1.78482,1.78482 3.38176,0.0939 4.79084,-1.78482 5.44839,-3.94539 8.36047,-8.83017 6.57566,-6.29384 3.38176,-4.88476 20.00876,-21.51178 -18.69363,26.11473 -4.69689,9.58166 -0.75151,7.13928 1.50301,4.32115 3.56964,2.53632 4.32114,-0.37575 5.63627,-2.16057 5.26052,-2.91208 6.1999,-4.88477 5.35446,-5.26052 11.93011,-12.49373 -1.78482,-34.85096 -1.22119,-2.53632 -1.87876,-1.12726 -2.91207,-0.7515 -3.66358,0.18788 -1.97269,1.59694 -0.4697,2.44239 0.93939,1.97269 2.44238,1.87876 2.91208,0.75151 1.78482,-0.65757 2.2545,-1.40907 1.31514,-1.12725 -6.48172,-1.69089"
     id="test"
     clip-path="url(#clipPath29)"
     inkscape:label="test"
     transform="matrix(1,0,0,1.0000023,1.4604514e-7,-124.9787)" />
  <g
     fill="#ffcd4c"
     fill-opacity="1"
     id="g4"
     style="stroke:#ffff00"
     transform="matrix(1,0,0,1.0000023,1.4604514e-7,-124.9787)">
    <g
       transform="translate(11.68656,211.47967)"
       id="g3"
       style="stroke:#ffff00">
      <g
         id="g2"
         style="stroke:#ffff00" />
    </g>
  </g>
  <g
     fill="#ffcd4c"
     fill-opacity="1"
     id="g7"
     style="stroke:#ffff00"
     transform="matrix(1,0,0,1.0000023,1.4604514e-7,-124.9787)">
    <g
       transform="translate(78.002244,211.47967)"
       id="g6"
       style="stroke:#ffff00">
      <g
         id="g5"
         style="stroke:#ffff00" />
    </g>
  </g>
  <g
     fill="#ffcd4c"
     fill-opacity="1"
     id="g10"
     style="stroke:#ffff00"
     transform="matrix(1,0,0,1.0000023,1.4604514e-7,-124.9787)">
    <g
       transform="translate(121.25893,211.47967)"
       id="g9"
       style="stroke:#ffff00">
      <g
         id="g8"
         style="stroke:#ffff00" />
    </g>
  </g>
  <g
     fill="#ffcd4c"
     fill-opacity="1"
     id="g13"
     style="stroke:#ffff00"
     transform="matrix(1,0,0,1.0000023,1.4604514e-7,-124.9787)">
    <g
       transform="translate(184.54495,211.47967)"
       id="g12"
       style="stroke:#ffff00">
      <g
         id="g11"
         style="stroke:#ffff00" />
    </g>
  </g>
  <g
     fill="#ffcd4c"
     fill-opacity="1"
     id="g16"
     style="stroke:#ffff00"
     transform="matrix(1,0,0,1.0000023,1.4604514e-7,-124.9787)">
    <g
       transform="translate(253.8903,211.47967)"
       id="g15"
       style="stroke:#ffff00">
      <g
         id="g14"
         style="stroke:#ffff00" />
    </g>
  </g>
  <g
     fill="#ffcd4c"
     fill-opacity="1"
     id="g19"
     style="stroke:#ffff00"
     transform="matrix(1,0,0,1.0000023,1.4604514e-7,-124.9787)">
    <g
       transform="translate(321.7208,211.47967)"
       id="g18"
       style="stroke:#ffff00">
      <g
         id="g17"
         style="stroke:#ffff00" />
    </g>
  </g>
  <ellipse
     style="fill:none;stroke:#ffff00;stroke-width:0.525001;stroke-linecap:round;stroke-linejoin:round;stroke-miterlimit:7.3;stroke-dasharray:none"
     id="path1"
     cx="36.494865"
     cy="38.238731"
     rx="2.8651052"
     ry="2.8651118" />
  <ellipse
     style="fill:none;stroke:#ffff00;stroke-width:0.525001;stroke-linecap:round;stroke-linejoin:round;stroke-miterlimit:7.3;stroke-dasharray:none"
     id="path1-8"
     cx="44.654911"
     cy="43.522038"
     rx="2.8651052"
     ry="2.8651118" />
  <ellipse
     style="fill:none;stroke:#ffff00;stroke-width:1.16362;stroke-linecap:round;stroke-linejoin:round;stroke-miterlimit:7.3;stroke-dasharray:none"
     id="path1-7"
     cx="80.809341"
     cy="63.711597"
     rx="6.3502789"
     ry="6.3502936" />
  <ellipse
     style="fill:none;stroke:#ffff00;stroke-width:0.525001;stroke-linecap:round;stroke-linejoin:round;stroke-miterlimit:7.3;stroke-dasharray:none"
     id="path1-84"
     cx="117.50336"
     cy="71.649361"
     rx="2.8651052"
     ry="2.8651118" />
  <ellipse
     style="fill:none;stroke:#ffff00;stroke-width:0.525001;stroke-linecap:round;stroke-linejoin:round;stroke-miterlimit:7.3;stroke-dasharray:none"
     id="path1-3"
     cx="220.61919"
     cy="68.820877"
     rx="2.8651052"
     ry="2.8651118" />
  <ellipse
     style="fill:none;stroke:#ffff00;stroke-width:0.525001;stroke-linecap:round;stroke-linejoin:round;stroke-miterlimit:7.3;stroke-dasharray:none"
     id="path1-1"
     cx="263.19766"
     cy="59.079262"
     rx="2.8651052"
     ry="2.8651118" />
  <ellipse
     style="fill:none;stroke:#ffff00;stroke-width:0.525001;stroke-linecap:round;stroke-linejoin:round;stroke-miterlimit:7.3;stroke-dasharray:none"
     id="path1-85"
     cx="267.26849"
     cy="69.259949"
     rx="2.8651052"
     ry="2.8651118" />
  <ellipse
     style="fill:none;stroke:#ffff00;stroke-width:0.525001;stroke-linecap:round;stroke-linejoin:round;stroke-miterlimit:7.3;stroke-dasharray:none"
     id="path1-0"
     cx="320.3761"
     cy="69.166016"
     rx="2.8651052"
     ry="2.8651118" />
</svg>
