<?xml version="1.0" encoding="UTF-8" standalone="no"?>
<svg
   version="1.2"
   viewBox="0 0 2122 2122"
   width="15"
   height="15"
   id="svg19"
   sodipodi:docname="coding-icon.svg"
   inkscape:version="1.2.2 (732a01da63, 2022-12-09)"
   xmlns:inkscape="http://www.inkscape.org/namespaces/inkscape"
   xmlns:sodipodi="http://sodipodi.sourceforge.net/DTD/sodipodi-0.dtd"
   xmlns="http://www.w3.org/2000/svg"
   xmlns:svg="http://www.w3.org/2000/svg">
  <defs
     id="defs23" />
  <sodipodi:namedview
     id="namedview21"
     pagecolor="#ffffff"
     bordercolor="#000000"
     borderopacity="0.25"
     inkscape:showpageshadow="2"
     inkscape:pageopacity="0.0"
     inkscape:pagecheckerboard="0"
     inkscape:deskcolor="#d1d1d1"
     showgrid="false"
     inkscape:zoom="22.627417"
     inkscape:cx="7.623495"
     inkscape:cy="4.2205436"
     inkscape:window-width="1280"
     inkscape:window-height="945"
     inkscape:window-x="-9"
     inkscape:window-y="-9"
     inkscape:window-maximized="1"
     inkscape:current-layer="svg19" />
  <title
     id="title2">vecteezy_programming-coding-icon_-ai</title>
  <style
     id="style4">
		.s0 { fill: #99d9e9 } 
		.s1 { fill: #ffffff } 
		.s2 { fill: #01748e } 
	</style>
  <g
     id="g1954">
    <rect
       style="opacity:1;fill:#01748e;fill-opacity:1;stroke-width:26.1942"
       id="rect304"
       width="2121.0693"
       height="2121.1113"
       x="0.29971796"
       y="0.149859"
       ry="0" />
    <g
       id="_Artboards_" />
    <g
       id="Capa 1">
      <g
         id="&lt;Group&gt;">
        <path
           id="&lt;Path&gt;"
           class="s0"
           d="m707.3 1519.2c11.9 0 23-4.8 31.3-13.4 16.6-17.2 16-44.8-1.2-61.4l-384.2-369.3c-3.9-3.8-6.1-9-6.1-14.4 0-5.5 2.2-10.6 6.1-14.4l384.2-369.4c17.2-16.6 17.8-44.1 1.2-61.4-8.3-8.6-19.4-13.4-31.3-13.4-11.3 0-22 4.4-30.1 12.2l-431.8 415.1c-8.4 8.1-13.3 19.5-13.3 31.3 0 11.7 4.9 23.1 13.3 31.3l431.8 415.1c8.1 7.8 18.8 12.1 30.1 12.1z" />
        <path
           id="path8"
           class="s0"
           d="m1444.2 614.3c-8.2-7.9-18.9-12.2-30.1-12.2-12 0-23.1 4.8-31.4 13.4-16.6 17.2-16 44.8 1.2 61.4l384.2 369.4c3.9 3.7 6.2 8.9 6.2 14.4 0 5.4-2.3 10.6-6.2 14.4l-384.2 369.3c-17.2 16.6-17.8 44.2-1.2 61.4 8.3 8.6 19.4 13.4 31.4 13.4 11.2 0 21.9-4.3 30.1-12.1l431.7-415.1c8.5-8.2 13.3-19.6 13.3-31.3 0-11.8-4.8-23.2-13.3-31.3z"
           style="fill:#ffffff;stroke-width:0.2;opacity:0.33755274;fill-opacity:1" />
        <path
           id="path10"
           class="s1"
           d="m939.7 1789.4c17.8 0 33.1-12.7 36.4-30.1l241.9-1383c3.9-20.4-9.3-39.9-29.4-43.7-2.3-0.5-4.7-0.7-7-0.7-17.8 0-33.1 12.7-36.4 30.2l-241.9 1382.9c-1.9 10.1 0.1 19.9 5.7 28.1 5.6 8.2 14 13.8 23.7 15.6q3.5 0.7 7 0.7z" />
        <path
           id="&lt;Compound Path&gt;"
           fill-rule="evenodd"
           class="s2"
           d="m765 1415.6c16.1 15.5 25.2 36.2 25.6 58.5 0.4 22.3-7.8 43.3-23.2 59.4-15.9 16.5-37.2 25.6-60.1 25.6-21.7 0-42.2-8.3-57.8-23.3l-431.7-415c-16.3-15.7-25.6-37.6-25.6-60.1 0-22.6 9.3-44.5 25.6-60.1l431.7-415.1c15.6-15 36.1-23.3 57.8-23.3 22.8 0 44.2 9.1 60 25.6 31.9 33.2 30.9 86-2.3 117.9l-369.2 355zm-27.6 28.8l-384.2-369.4c-3.9-3.8-6.2-9-6.2-14.4 0-5.4 2.3-10.6 6.2-14.4l384.2-369.4c17.2-16.6 17.8-44.1 1.2-61.4-8.3-8.6-19.4-13.3-31.4-13.3-11.2 0-21.9 4.3-30.1 12.1l-431.7 415.1c-8.5 8.1-13.3 19.6-13.3 31.3 0 11.8 4.8 23.2 13.3 31.3l431.7 415.1c8.2 7.8 18.9 12.1 30.1 12.1 12 0 23.1-4.7 31.4-13.3 16.6-17.3 16-44.9-1.2-61.4z" />
        <path
           id="path13"
           fill-rule="evenodd"
           class="s2"
           d="m1903.6 1000.6c16.2 15.6 25.5 37.5 25.5 60.1 0 22.5-9.3 44.4-25.5 60.1l-431.8 415c-15.6 15-36.1 23.3-57.7 23.3-22.9 0-44.3-9.1-60.1-25.6-31.9-33.1-30.9-86 2.3-117.9l369.2-354.9-369.2-355c-33.1-31.9-34.2-84.7-2.3-117.9 15.8-16.5 37.2-25.6 60.1-25.6 21.6 0 42.1 8.3 57.7 23.3zm-14.3 60.1c0-11.8-4.8-23.2-13.3-31.3l-431.8-415.1c-8.1-7.8-18.8-12.1-30.1-12.1-11.9 0-23 4.7-31.3 13.3-16.6 17.3-16 44.8 1.2 61.4l384.2 369.4c3.9 3.8 6.1 9 6.1 14.4 0 5.4-2.2 10.6-6.1 14.4l-384.2 369.3c-17.2 16.6-17.8 44.2-1.2 61.5 8.3 8.6 19.4 13.3 31.3 13.3 11.3 0 22-4.3 30.2-12.1l431.7-415.1c8.4-8.1 13.3-19.6 13.3-31.3z" />
        <path
           id="path15"
           fill-rule="evenodd"
           class="s2"
           d="m1257.3 383.5l-241.9 1383c-7 36.5-38.8 62.8-75.7 62.8-4.8 0-9.7-0.4-14.5-1.4-20.2-3.8-37.7-15.3-49.2-32.4-11.6-17-15.8-37.5-12-57.7l241.9-1382.9c7-36.6 38.8-62.9 75.7-62.9 4.8 0 9.7 0.5 14.5 1.4 41.7 8 69.2 48.4 61.2 90.1zm-68.7-50.9c-2.3-0.5-4.7-0.7-7-0.7-17.8 0-33.1 12.7-36.4 30.2l-241.9 1382.9c-1.9 10.1 0.1 19.9 5.7 28.1 5.6 8.2 14 13.8 23.7 15.6q3.5 0.7 7 0.7c17.8 0 33.1-12.7 36.4-30.1l241.9-1383c3.9-20.4-9.3-39.9-29.4-43.7z" />
      </g>
    </g>
    <path
       style="opacity:0.337553;fill:#ffffff;fill-opacity:1;stroke-width:0.00883884"
       d="M 3.2725462,9.1632275 C 1.5466611,7.503863 1.5591762,7.5196899 1.7788155,7.2742286 1.8335058,7.2131087 2.5544232,6.5159502 3.3808543,5.7249876 4.9676029,4.2063385 5.0108017,4.1741003 5.1914901,4.3737588 5.3250983,4.5213941 5.2903676,4.6749779 5.0768057,4.880908 4.9704635,4.98345 4.5851455,5.3531296 4.2205436,5.7024182 2.7854587,7.0772293 2.4269388,7.443002 2.439862,7.5191223 c 0.0071,0.041838 0.3708875,0.4193017 0.8084098,0.8388083 1.4925873,1.4311275 1.9642433,1.8964484 2.0111999,1.9841884 0.048779,0.09114 -0.00455,0.25103 -0.106418,0.319049 C 4.9701436,10.7833 4.8967952,10.724873 3.2725462,9.1632275 Z"
       id="path1550"
       transform="scale(141.46667)" />
    <path
       style="opacity:0.337553;fill:#ffffff;fill-opacity:1;stroke-width:0.003125"
       d="M 4.9817389,10.681315 C 4.8600056,10.637761 4.612007,10.431243 4.1096211,9.9550666 2.9218051,8.8292198 1.931448,7.856102 1.8098343,7.6953125 1.6550792,7.4907058 1.6501251,7.4364587 1.7729701,7.2916561 1.8199786,7.236245 1.8966572,7.1567433 1.9433668,7.1149856 1.9900765,7.073228 2.3014196,6.7750791 2.6352405,6.4524326 4.5436337,4.6079219 4.8596406,4.324161 5.030953,4.3011832 c 0.060481,-0.00811 0.069683,-0.00406 0.1339773,0.059044 0.1135778,0.1114682 0.127095,0.2137545 0.046436,0.3513884 C 5.1868236,4.7534942 4.7892175,5.1481257 4.1910453,5.7243025 3.6519859,6.2435401 3.0411621,6.839667 2.8336588,7.0490292 2.4341047,7.4521625 2.4067339,7.4898551 2.459179,7.5647309 c 0.045376,0.064784 0.5965688,0.6131744 1.2205085,1.2143044 0.8079034,0.7783683 1.4838637,1.4469607 1.5408858,1.5240907 0.076855,0.103956 0.054957,0.237533 -0.054727,0.333837 -0.031657,0.0278 -0.06377,0.05054 -0.071362,0.05054 -0.00759,0 -0.023168,0.0032 -0.034612,0.0072 -0.011445,0.0039 -0.046605,-0.0021 -0.078133,-0.01335 z"
       id="path1621"
       transform="scale(141.46667)" />
    <path
       style="opacity:1;fill:#ffffff;fill-opacity:1;stroke-width:0.00883884"
       d="M 9.795859,10.61417 C 9.6158183,10.415228 9.6449565,10.378977 11.138944,8.9432594 12.25443,7.8712803 12.552397,7.5617762 12.542109,7.485762 12.534321,7.428216 12.216814,7.0897595 11.75565,6.6474132 9.8873618,4.8553574 9.7227182,4.6859892 9.7227182,4.5561443 c 0,-0.067665 0.036369,-0.1559412 0.08082,-0.1961686 0.1953556,-0.1767944 0.2296548,-0.1505397 1.9032828,1.4568684 0.876172,0.8415051 1.604667,1.5666432 1.618878,1.611418 0.01421,0.044775 0.0063,0.1179804 -0.01766,0.1626791 -0.02392,0.044699 -0.547068,0.5666039 -1.162546,1.1597894 -0.615478,0.5931857 -1.320013,1.2733104 -1.565634,1.5113894 -0.362748,0.351608 -0.47139,0.43287 -0.578723,0.43287 -0.072677,0 -0.1650532,-0.03637 -0.2052807,-0.08082 z"
       id="path1884"
       transform="scale(141.46667)" />
    <path
       style="opacity:1;fill:#ffffff;fill-opacity:1;stroke-width:0.00883884"
       d="M 4.8333053,10.569019 C 4.4982681,10.326319 2.1187391,8.0481593 1.8760835,7.7377762 1.7922026,7.6304834 1.7235728,7.498875 1.7235728,7.4453132 c 0,-0.069956 0.3640852,-0.445965 1.2926796,-1.3350128 1.9291495,-1.8469917 1.9951507,-1.8986036 2.1629455,-1.6913859 0.05194,0.064143 0.071739,0.1353723 0.054061,0.1944877 C 5.2179169,4.6647042 4.5810607,5.3198882 3.8180222,6.0693654 3.0549837,6.8188426 2.4305854,7.4651824 2.4304704,7.505676 2.4303555,7.54617 3.0675626,8.2057532 3.8464862,8.9714173 4.6607671,9.7718365 5.261945,10.396406 5.2609088,10.440874 c -0.00186,0.08 -0.1499622,0.254116 -0.2161423,0.254116 -0.02066,0 -0.1158174,-0.05669 -0.2114612,-0.125971 z"
       id="path1886"
       transform="scale(141.46667)" />
  </g>
</svg>
