<svg width="156" height="254" viewBox="0 0 156 254" fill="none" xmlns="http://www.w3.org/2000/svg">
<rect width="156" height="254" fill="#000139"/>
<path d="M14.1781 197V194.5L30.1781 191L30.3781 119.5L30.1781 53.3L14.1781 49.9V47H63.8781V49.9L48.1781 53.3L47.9781 119.5L48.1781 191L63.8781 194.5V197H14.1781ZM39.4781 120.4V117.2L77.9781 117.5L116.378 117.2V120.4H77.9781H39.4781ZM92.0781 197V194.5L107.778 191L107.978 119.5L107.778 53.3L92.0781 49.9V47H141.778V49.9L125.778 53.3L125.578 119.5L125.778 191L141.778 194.5V197H92.0781Z" fill="#00B2BF"/>
<path d="M44.5433 218V214.75L66.2533 210.2L66.5133 119.98L66.2533 31.19L44.5433 26.77V23H111.363V26.77L89.6533 31.19L89.3933 119.98L89.6533 210.07L111.363 214.75V218H44.5433Z" fill="#00E8F9"/>
</svg>
